<svg id="Layer_1" data-name="Layer 1" xmlns="http://www.w3.org/2000/svg" viewBox="0 0 274.56 229.38"><defs><style>.cls-1{fill:#fff;stroke:#3a84c5;stroke-miterlimit:10;stroke-width:3px;}.cls-2{fill:#3a84c5;}</style></defs><rect class="cls-1" x="227.18" y="40.01" width="45.88" height="45.88" rx="5.8"/><polygon class="cls-2" points="152.46 154.51 152.46 154.36 152.34 154.36 45.98 154.36 45.86 154.36 45.86 154.51 0 210.02 0 229.38 45.86 229.38 152.46 229.38 198.32 229.38 198.32 210.02 152.46 154.51"/><path class="cls-2" d="M383.44,397.69H310.11a36.67,36.67,0,1,1,73.33,0Z" transform="translate(-247.62 -252.62)"/><rect class="cls-2" x="363.72" y="250.69" width="10.89" height="140.77" rx="0.74" transform="translate(-77.11 -378.65) rotate(25.03)"/><rect class="cls-2" x="428.99" y="220.28" width="7.25" height="80.17" rx="0.5" transform="translate(445.37 -424.87) rotate(90)"/><polygon class="cls-2" points="225.48 0 219.76 4.71 214.04 9.43 217.37 22.75 227.65 14.29 237.92 5.82 225.48 0"/><polygon class="cls-2" points="226.45 12.68 223.47 15.97 220.01 33.26 239.86 51.31 249.98 47.97 253.91 43.64 248.54 38.76 245.15 42.49 230.97 29.6 231.68 23.43 234.66 20.14 240.74 18.86 254.92 31.74 251.52 35.47 256.9 40.36 260.83 36.03 263.19 25.64 243.34 7.6 226.45 12.68"/></svg>