<?xml version="1.0" encoding="utf-8"?>
<!-- Generator: Adobe Illustrator 25.1.0, SVG Export Plug-In . SVG Version: 6.00 Build 0)  -->
<svg version="1.1" id="Layer_1" xmlns="http://www.w3.org/2000/svg" xmlns:xlink="http://www.w3.org/1999/xlink" x="0px" y="0px"
	 viewBox="0 0 201.2 148.7" style="enable-background:new 0 0 201.2 148.7;" xml:space="preserve">
<style type="text/css">
	.st0{fill:#002F87;}
</style>
<path class="st0" d="M129.9,108.9c2.3-1.9,4.4-4,6.2-6.3l-15.5-15.5c-1.7,2.6-3.9,4.8-6.5,6.5l15.1,15.1
	C129.5,108.8,129.7,108.9,129.9,108.9z"/>
<path class="st0" d="M105.2,50V28.1c-1.5-0.2-3-0.2-4.6-0.2s-3.1,0.1-4.6,0.2V50c1.5-0.3,3-0.4,4.6-0.4
	C102.2,49.6,103.8,49.7,105.2,50z"/>
<path class="st0" d="M55.1,69.1c-0.2,1.5-0.2,3-0.2,4.6s0.1,3.1,0.2,4.6H77c-0.3-1.5-0.4-3-0.4-4.6s0.1-3.1,0.4-4.6H55.1z"/>
<path class="st0" d="M146.5,73.7c0-1.5-0.1-3.1-0.2-4.6h-21.9c0.3,1.5,0.4,3,0.4,4.6s-0.1,3.1-0.4,4.6h21.9
	C146.4,76.7,146.5,75.2,146.5,73.7z"/>
<path class="st0" d="M48.2,73.7c0-10.8,3.3-20.9,8.9-29.2l-6.1-6.1C44.8,47.2,40.8,57.7,40,69.1H28v9.2h11.9
	c0.1,1.6,0.3,3.2,0.6,4.8c2.7-0.3,5.5-0.5,8.5-0.6C48.5,79.6,48.2,76.7,48.2,73.7z"/>
<path class="st0" d="M100.7,21.2c10.8,0,20.9,3.3,29.2,8.9l6.1-6.1c-8.8-6.3-19.3-10.2-30.7-11.1V1h-9.1v12
	c-11.4,0.8-21.9,4.8-30.7,11.1l6.1,6.1C79.8,24.5,89.8,21.2,100.7,21.2z"/>
<path class="st0" d="M148.7,111.1c7.2-9.2,11.8-20.5,12.7-32.9h11.9v-9.2h-12c-0.9-11.4-4.8-21.9-11.1-30.7l-6.1,6.1
	c5.6,8.3,8.9,18.4,8.9,29.2c0,14.4-5.8,27.4-15.1,36.8c1.3,0.2,2.6,0.3,4,0.4c2.1,0.1,4.2,0.2,6.5,0.2
	C148.6,111.1,148.6,111.1,148.7,111.1z"/>
<path class="st0" d="M100.7,91.3c9.7,0,17.6-7.9,17.6-17.6s-7.9-17.6-17.6-17.6S83.1,64,83.1,73.7S90.9,91.3,100.7,91.3z
	 M100.7,64.9c4.9,0,8.8,3.9,8.8,8.8s-3.9,8.8-8.8,8.8s-8.8-3.9-8.8-8.8S95.8,64.9,100.7,64.9z"/>
<path class="st0" d="M49,30.4c4.7,0,8.4-3.8,8.4-8.4s-3.8-8.4-8.4-8.4s-8.4,3.8-8.4,8.4C40.5,26.7,44.3,30.4,49,30.4z"/>
<path class="st0" d="M152.1,31.1c4.7,0,8.4-3.8,8.4-8.4s-3.8-8.4-8.4-8.4s-8.4,3.8-8.4,8.4S147.4,31.1,152.1,31.1z"/>
<path class="st0" d="M194.2,105.4c-11.8,7.1-22.9,13.7-45.6,13.7c-22.7,0-33.9-6.7-45.6-13.7c-12.3-7.4-25-15-50.1-15
	s-37.8,7.6-50.1,15l-1.3,0.8l4.5,7.5l1.3-0.8c11.8-7.1,22.9-13.7,45.6-13.7c22.7,0,33.9,6.7,45.6,13.7c12.3,7.4,25,15,50.1,15
	s37.8-7.6,50.1-15l1.3-0.8l-4.5-7.5L194.2,105.4z"/>
<path class="st0" d="M52.8,114c-1,0-6,0-7.1,0l5,8.7c1.4,0,1.8,0,3.1,0.1c20,0.8,30.5,7,41.5,13.7c6.8,4.1,13.8,8.3,23,11.2
	c1.3-1.2,2.6-2.4,3.9-3.7c1.1-1.1,2.2-2.2,3.3-3.4c-10.6-2.5-18-7-25.7-11.6C88.1,121.9,75.9,114.6,52.8,114z"/>
<path class="st0" d="M133.8,43c0.6-0.6,0.6-1.6,0-2.2c-0.6-0.6-1.6-0.6-2.2,0c-0.6,0.6-0.6,1.6,0,2.2c0.3,0.3,0.7,0.5,1.1,0.5
	C133.1,43.4,133.5,43.3,133.8,43z"/>
<path class="st0" d="M118.3,58.3c0.6-0.6,0.6-1.6,0-2.2c-0.6-0.6-1.6-0.6-2.2,0c-0.6,0.6-0.6,1.6,0,2.2c0.3,0.3,0.7,0.5,1.1,0.5
	S118,58.6,118.3,58.3z"/>
<path class="st0" d="M123.5,53.2c0.6-0.6,0.6-1.6,0-2.2c-0.6-0.6-1.6-0.6-2.2,0c-0.6,0.6-0.6,1.6,0,2.2c0.3,0.3,0.7,0.5,1.1,0.5
	S123.2,53.5,123.5,53.2z"/>
<path class="st0" d="M128.6,48.1c0.6-0.6,0.6-1.6,0-2.2c-0.6-0.6-1.6-0.6-2.2,0c-0.6,0.6-0.6,1.6,0,2.2c0.3,0.3,0.7,0.5,1.1,0.5
	S128.3,48.4,128.6,48.1z"/>
<path class="st0" d="M142.9,33.2c0.4,0,0.8-0.2,1.1-0.5c0.6-0.6,0.6-1.6,0-2.2c-0.6-0.6-1.6-0.6-2.2,0c-0.6,0.6-0.6,1.6,0,2.2
	C142.1,33,142.5,33.2,142.9,33.2z"/>
<path class="st0" d="M137.8,38.3c0.4,0,0.8-0.2,1.1-0.5c0.6-0.6,0.6-1.6,0-2.2c-0.6-0.6-1.6-0.6-2.2,0c-0.6,0.6-0.6,1.6,0,2.2
	C137,38.2,137.4,38.3,137.8,38.3z"/>
<path class="st0" d="M70,43c0.6-0.6,0.6-1.6,0-2.2c-0.6-0.6-1.6-0.6-2.2,0c-0.6,0.6-0.6,1.6,0,2.2c0.3,0.3,0.7,0.5,1.1,0.5
	S69.7,43.3,70,43z"/>
<path class="st0" d="M85.5,58.3c0.6-0.6,0.6-1.6,0-2.2c-0.6-0.6-1.6-0.6-2.2,0c-0.6,0.6-0.6,1.6,0,2.2c0.3,0.3,0.7,0.5,1.1,0.5
	S85.1,58.6,85.5,58.3z"/>
<path class="st0" d="M78.1,51c-0.6,0.6-0.6,1.6,0,2.2c0.3,0.3,0.7,0.5,1.1,0.5s0.8-0.2,1.1-0.5c0.6-0.6,0.6-1.6,0-2.2
	C79.7,50.3,78.7,50.3,78.1,51z"/>
<path class="st0" d="M75.2,48.1c0.6-0.6,0.6-1.6,0-2.2c-0.6-0.6-1.6-0.6-2.2,0c-0.6,0.6-0.6,1.6,0,2.2c0.3,0.3,0.7,0.5,1.1,0.5
	S74.9,48.4,75.2,48.1z"/>
<path class="st0" d="M57.5,32.7c0.3,0.3,0.7,0.5,1.1,0.5s0.8-0.2,1.1-0.5c0.6-0.6,0.6-1.6,0-2.2c-0.6-0.6-1.6-0.6-2.2,0
	C56.9,31.1,56.9,32.1,57.5,32.7z"/>
<path class="st0" d="M63.7,38.3c0.4,0,0.8-0.2,1.1-0.5c0.6-0.6,0.6-1.6,0-2.2c-0.6-0.6-1.6-0.6-2.2,0c-0.6,0.6-0.6,1.6,0,2.2
	C62.9,38.2,63.3,38.3,63.7,38.3z"/>
</svg>
