<?xml version="1.0" encoding="utf-8"?>
<!-- Generator: Adobe Illustrator 25.2.3, SVG Export Plug-In . SVG Version: 6.00 Build 0)  -->
<svg version="1.1" id="Layer_1" xmlns="http://www.w3.org/2000/svg" xmlns:xlink="http://www.w3.org/1999/xlink" x="0px" y="0px"
	 viewBox="0 0 595.28 252.11" style="enable-background:new 0 0 595.28 252.11;" xml:space="preserve">
<style type="text/css">
	.st0{fill:#FFFFFF;}
</style>
<path class="st0" d="M182.45,160.68c2.27-1.88,4.35-3.98,6.22-6.27l-15.47-15.47c-1.73,2.55-3.92,4.75-6.47,6.47l15.09,15.09
	C182.03,160.57,182.24,160.62,182.45,160.68z"/>
<path class="st0" d="M157.8,101.76V79.88c-1.5-0.15-3.03-0.23-4.58-0.23s-3.07,0.08-4.58,0.23v21.88c1.48-0.28,3.01-0.44,4.58-0.44
	C154.79,101.32,156.32,101.48,157.8,101.76z"/>
<path class="st0" d="M107.67,120.86c-0.15,1.51-0.23,3.03-0.23,4.58s0.08,3.07,0.23,4.58h21.88c-0.28-1.48-0.44-3.01-0.44-4.58
	s0.15-3.09,0.44-4.58H107.67z"/>
<path class="st0" d="M199.01,125.44c0-1.54-0.08-3.07-0.23-4.58H176.9c0.28,1.48,0.44,3.01,0.44,4.58s-0.15,3.09-0.44,4.58h21.88
	C198.93,128.51,199.01,126.98,199.01,125.44z"/>
<path class="st0" d="M100.77,125.44c0-10.83,3.28-20.89,8.9-29.24l-6.06-6.06c-6.27,8.79-10.25,19.32-11.1,30.72H80.54v9.15h11.95
	c0.12,1.62,0.31,3.22,0.55,4.81c2.67-0.29,5.49-0.48,8.47-0.57C101.03,131.38,100.77,128.44,100.77,125.44z"/>
<path class="st0" d="M153.22,72.98c10.83,0,20.88,3.28,29.24,8.9l6.06-6.06c-8.79-6.27-19.32-10.25-30.72-11.1V52.74h-9.15v11.98
	c-11.4,0.85-21.93,4.83-30.72,11.1l6.06,6.06C132.34,76.26,142.4,72.98,153.22,72.98z"/>
<path class="st0" d="M201.22,162.91c7.2-9.21,11.82-20.54,12.74-32.9h11.95v-9.15h-11.96c-0.85-11.41-4.83-21.93-11.1-30.72
	l-6.06,6.06c5.62,8.35,8.9,18.41,8.9,29.24c0,14.36-5.78,27.37-15.13,36.84c1.29,0.17,2.64,0.31,4.03,0.42
	c2.05,0.14,4.22,0.22,6.53,0.22C201.14,162.91,201.18,162.91,201.22,162.91z"/>
<path class="st0" d="M153.22,143.04c9.72,0,17.6-7.88,17.6-17.6s-7.88-17.6-17.6-17.6c-9.72,0-17.6,7.88-17.6,17.6
	S143.5,143.04,153.22,143.04z M153.22,116.64c4.86,0,8.8,3.94,8.8,8.8s-3.94,8.8-8.8,8.8c-4.86,0-8.8-3.94-8.8-8.8
	S148.36,116.64,153.22,116.64z"/>
<path class="st0" d="M101.55,82.21c4.67,0,8.45-3.78,8.45-8.45c0-4.67-3.78-8.45-8.45-8.45c-4.67,0-8.45,3.78-8.45,8.45
	C93.1,78.43,96.88,82.21,101.55,82.21z"/>
<path class="st0" d="M204.61,82.83c4.67,0,8.45-3.78,8.45-8.45c0-4.67-3.78-8.45-8.45-8.45c-4.67,0-8.45,3.78-8.45,8.45
	C196.16,79.05,199.94,82.83,204.61,82.83z"/>
<path class="st0" d="M246.74,157.17c-11.78,7.07-22.9,13.74-45.64,13.74c-22.73,0-33.86-6.68-45.64-13.74
	c-12.28-7.37-24.97-14.98-50.12-14.98c-25.15,0-37.84,7.62-50.12,14.98l-1.29,0.77l4.47,7.48l1.3-0.78
	c11.78-7.07,22.9-13.74,45.64-13.74c22.73,0,33.86,6.68,45.64,13.74c12.28,7.37,24.97,14.98,50.12,14.98
	c25.15,0,37.84-7.62,50.12-14.99l1.29-0.77l-4.47-7.48L246.74,157.17z"/>
<path class="st0" d="M105.35,165.78c-1-0.03-6.02-0.04-7.06-0.04l5,8.71c1.41,0,1.78,0.03,3.1,0.08
	c20.02,0.75,30.49,7.04,41.54,13.67c6.83,4.1,13.8,8.27,22.96,11.17c1.34-1.21,2.65-2.43,3.92-3.66c1.13-1.1,2.21-2.24,3.28-3.39
	c-10.56-2.53-17.98-6.98-25.67-11.6C140.63,173.67,128.48,166.37,105.35,165.78z"/>
<path class="st0" d="M186.33,94.73c0.62-0.62,0.63-1.62,0.01-2.24c-0.62-0.63-1.62-0.63-2.24-0.01c-0.62,0.62-0.63,1.62-0.01,2.24
	c0.31,0.31,0.72,0.47,1.12,0.47C185.62,95.19,186.02,95.03,186.33,94.73z"/>
<path class="st0" d="M170.89,110.07c0.62-0.62,0.62-1.62,0-2.24c-0.62-0.62-1.62-0.63-2.23-0.01c-0.63,0.62-0.63,1.62-0.01,2.24
	c0.31,0.31,0.71,0.47,1.12,0.47S170.58,110.38,170.89,110.07z"/>
<path class="st0" d="M176.03,104.95c0.62-0.61,0.63-1.62,0.01-2.23c-0.62-0.63-1.62-0.63-2.24-0.01c-0.62,0.62-0.63,1.62-0.01,2.24
	c0.31,0.31,0.72,0.47,1.12,0.47S175.72,105.26,176.03,104.95z"/>
<path class="st0" d="M181.18,99.84c0.62-0.62,0.63-1.62,0.01-2.24c-0.62-0.62-1.62-0.63-2.24-0.01c-0.62,0.62-0.63,1.62-0.01,2.24
	c0.31,0.31,0.72,0.47,1.12,0.47S180.87,100.15,181.18,99.84z"/>
<path class="st0" d="M195.5,84.96c0.4,0,0.81-0.16,1.12-0.46c0.62-0.62,0.62-1.62,0-2.24c-0.62-0.62-1.62-0.63-2.23-0.01
	c-0.63,0.62-0.63,1.62-0.01,2.24C194.69,84.81,195.1,84.96,195.5,84.96z"/>
<path class="st0" d="M190.36,90.07c0.4,0,0.81-0.15,1.12-0.46c0.62-0.62,0.62-1.62,0-2.24c-0.61-0.62-1.62-0.62-2.23-0.01
	c-0.63,0.62-0.63,1.62-0.01,2.24C189.55,89.92,189.95,90.07,190.36,90.07z"/>
<path class="st0" d="M122.58,94.72c0.62-0.63,0.61-1.62-0.01-2.24c-0.62-0.62-1.62-0.62-2.24,0.01c-0.62,0.62-0.61,1.62,0.01,2.24
	c0.31,0.3,0.71,0.46,1.12,0.46S122.27,95.03,122.58,94.72z"/>
<path class="st0" d="M138.01,110.06c0.62-0.62,0.62-1.62-0.01-2.24c-0.62-0.62-1.62-0.61-2.23,0.01c-0.62,0.63-0.62,1.62,0,2.24
	c0.32,0.31,0.72,0.46,1.12,0.46S137.7,110.37,138.01,110.06z"/>
<path class="st0" d="M130.62,102.72c-0.62,0.62-0.61,1.62,0.01,2.23c0.31,0.31,0.71,0.47,1.12,0.47s0.82-0.16,1.12-0.47
	c0.62-0.63,0.61-1.62-0.01-2.24C132.24,102.09,131.24,102.09,130.62,102.72z"/>
<path class="st0" d="M127.72,99.83c0.62-0.62,0.61-1.62-0.01-2.24c-0.62-0.62-1.62-0.61-2.24,0.01c-0.62,0.63-0.61,1.62,0.01,2.24
	c0.31,0.31,0.71,0.46,1.12,0.46S127.41,100.14,127.72,99.83z"/>
<path class="st0" d="M110.04,84.51c0.32,0.3,0.72,0.46,1.12,0.46s0.81-0.16,1.12-0.47c0.62-0.63,0.62-1.62-0.01-2.24
	c-0.62-0.62-1.62-0.61-2.23,0.01C109.42,82.88,109.42,83.89,110.04,84.51z"/>
<path class="st0" d="M116.3,90.07c0.41,0,0.82-0.15,1.12-0.47c0.62-0.62,0.62-1.62-0.01-2.24c-0.62-0.61-1.62-0.61-2.23,0.01
	c-0.62,0.63-0.62,1.62,0,2.24C115.49,89.92,115.9,90.07,116.3,90.07z"/>
<g>
	<polygon class="st0" points="294.72,126.02 312.85,126.02 312.85,118.5 294.72,118.5 294.72,105.58 316.12,105.58 316.12,98.05 
		285.78,98.05 285.78,148.47 316.89,148.47 316.89,140.95 294.72,140.95 	"/>
	<path class="st0" d="M362.8,113.01c0-11.25-8.08-14.96-18.56-14.96h-16.99v50.42h8.94v-19.7h7.68l10.85,19.7h10.05l-12.06-21.02
		C358.77,125.35,362.8,120.66,362.8,113.01z M336.19,105.21h7.12c6.91,0,10.67,2,10.67,7.8c0,5.74-3.76,8.6-10.67,8.6h-7.12V105.21z
		"/>
	<path class="st0" d="M386.33,98.05h-13.44v50.42h13.91c14.99,0,24.11-8.73,24.11-25.41C410.91,106.38,401.78,98.05,386.33,98.05z
		 M385.75,141.22h-3.92V105.3h3.92c10.14,0,15.97,5.37,15.97,17.76C401.72,135.46,395.89,141.22,385.75,141.22z"/>
	<path class="st0" d="M443.69,120.81l-6.8-2.85c-4.18-1.71-8.02-3.18-8.02-7.14c0-3.69,3.11-5.92,7.89-5.92
		c4.32,0,7.74,1.6,10.95,4.33l4.59-5.67c-3.95-3.99-9.65-6.43-15.54-6.43c-9.84,0-16.93,6.18-16.93,14.21
		c0,7.37,5.23,11.3,10.19,13.37l6.89,2.99c4.58,1.94,7.83,3.27,7.83,7.42c0,3.93-3.12,6.51-8.79,6.51c-4.69,0-9.53-2.31-13.14-5.75
		l-5.21,6.14c4.78,4.7,11.35,7.39,18.16,7.39c11.32,0,18.1-6.81,18.1-14.99C453.88,127.1,449.68,123.31,443.69,120.81z"/>
	<polygon class="st0" points="472.03,126.02 490.16,126.02 490.16,118.5 472.03,118.5 472.03,105.58 493.43,105.58 493.43,98.05 
		463.08,98.05 463.08,148.47 494.2,148.47 494.2,140.95 472.03,140.95 	"/>
	<path class="st0" d="M524.91,98.05h-10.48l-16.44,50.42h9.13l3.94-13.66h16.91l3.91,13.66h9.47L524.91,98.05z M513.08,127.79
		l1.77-6.15c1.6-5.33,3.08-11.04,4.47-16.62h0.31c1.48,5.54,2.96,11.29,4.56,16.62l1.76,6.15H513.08z"/>
</g>
</svg>
