<svg id="Layer_1" data-name="Layer 1" xmlns="http://www.w3.org/2000/svg" viewBox="0 0 320 210"><defs><style>.cls-1{fill:#fff;}.cls-2,.cls-3{fill:none;}.cls-2{stroke:#fff;stroke-miterlimit:10;stroke-width:7px;}</style></defs><path class="cls-1" d="M313.6,369.06a45.78,45.78,0,1,0,45.78,45.78A45.78,45.78,0,0,0,313.6,369.06Zm16.32,62.1a16.32,16.32,0,1,1,16.31-16.32A16.32,16.32,0,0,1,329.92,431.16Z" transform="translate(-225.67 -274.77)"/><circle class="cls-2" cx="236.15" cy="140.06" r="42.29"/><path class="cls-1" d="M387.84,309.35h-.27c-124.06,1.47-119.73,103-119.73,103a3.51,3.51,0,0,0,3.44,3.22c3.33.34,3.56-3.22,3.56-3.22,4.85-98.78,106.93-95.61,112.73-95.35v0h.27v0c5.79-.26,107.87-3.43,112.73,95.35,0,0,.22,3.56,3.55,3.22a3.52,3.52,0,0,0,3.45-3.22S511.89,310.82,387.84,309.35Z" transform="translate(-225.67 -274.77)"/><path class="cls-1" d="M310.73,319s-31,12.33-48,62.66c0,0-30-24.33-14.66-53.33S291.73,295,310.73,319Z" transform="translate(-225.67 -274.77)"/><path class="cls-1" d="M462.6,319s31,12.33,48,62.66c0,0,30-24.33,14.67-53.33S481.6,295,462.6,319Z" transform="translate(-225.67 -274.77)"/><circle class="cls-1" cx="223.91" cy="140.06" r="16.32"/><rect class="cls-3" width="320" height="210"/></svg>