<svg id="Layer_1" data-name="Layer 1" xmlns="http://www.w3.org/2000/svg" viewBox="0 0 269 254.32"><defs><style>.cls-1{fill:#3a84c5;}.cls-2{fill:#fff;}</style></defs><path class="cls-1" d="M434.42,339.45A59,59,0,0,0,485.57,369v86.58c-10.23,0-18.51,5.68-18.51,12.66s8.28,12.59,18.51,12.59v15.34H306.09a40.61,40.61,0,0,1-40.59-40.59V282.42a40.6,40.6,0,0,1,40.59-40.58H485.57v9a59.09,59.09,0,0,0-51.15,88.61Z" transform="translate(-265.5 -241.84)"/><circle class="cls-1" cx="220.07" cy="68.08" r="48.92"/><path class="cls-2" d="M508.34,305.86H489.63V287.14a4.06,4.06,0,0,0-8.12,0v18.72H462.79a4.06,4.06,0,0,0,0,8.11h18.72v18.72a4.06,4.06,0,0,0,8.12,0V314h18.71a4.06,4.06,0,1,0,0-8.11Z" transform="translate(-265.5 -241.84)"/><rect class="cls-2" x="28.31" y="53.24" width="113.87" height="10.96" rx="0.56"/><rect class="cls-2" x="28.31" y="81.02" width="113.87" height="10.96" rx="0.56"/><path class="cls-2" d="M438.89,450.63v16.23H320.3a8.12,8.12,0,1,1,0-16.23Z" transform="translate(-265.5 -241.84)"/></svg>