<svg id="Layer_1" data-name="Layer 1" xmlns="http://www.w3.org/2000/svg" viewBox="0 0 224.73 220.99"><defs><style>.cls-1,.cls-2{fill:#3a84c5;}.cls-2{font-size:74.82px;font-family:Futura-Bold;font-weight:700;}</style></defs><path class="cls-1" d="M496.69,409.36H437.82V347.91a12.17,12.17,0,0,0-12.17-12.16H375.44a12.17,12.17,0,0,0-12.17,12.16v33.61H299.8a12.16,12.16,0,0,0-12.17,12.16V464.2a15.68,15.68,0,0,0,15.68,15.68H496.69a15.68,15.68,0,0,0,15.68-15.68V425A15.68,15.68,0,0,0,496.69,409.36Z" transform="translate(-287.63 -258.89)"/><text class="cls-2" transform="translate(94.31 61.24)">1</text><text class="cls-2" transform="translate(18.58 107.46)">2</text><text class="cls-2" transform="translate(161.01 134.9)">3</text></svg>