<svg id="Layer_1" data-name="Layer 1" xmlns="http://www.w3.org/2000/svg" viewBox="0 0 298.07 194.69"><defs><style>.cls-1,.cls-3{fill:#3884c5;}.cls-2{fill:#3a84c5;}.cls-3{font-size:146.8px;font-family:Futura-Bold;font-weight:700;}.cls-4{fill:none;}</style></defs><path class="cls-1" d="M323.33,410.79a132.7,132.7,0,0,0,1.29,15.08,8.61,8.61,0,0,0,6.25-7.44C331.54,412.48,324.05,410.94,323.33,410.79ZM328,372.58c-1,3.49-1.85,7.08-2.51,10.77a58.78,58.78,0,0,0,8.36,2.36c.66.21,5.07,1.44,9,2.92a73,73,0,0,1,2-8.25C342.67,378.58,335.54,373.2,328,372.58Zm68.06-62.78c-24.26,0-45.75,15.85-58.93,40.27,1,.2,11.44,2.46,18.16,7.84,10-14.92,24.56-24.26,40.77-24.26,30.31,0,54.93,32.93,54.93,73.5s-24.62,73.5-54.93,73.5c-20.57,0-38.47-15.08-47.9-37.39-2,2.25-7.08,6.51-17.08,7.64,11.95,31.8,36.57,53.59,65,53.59,40.16,0,72.73-43.59,72.73-97.34S436.22,309.8,396.06,309.8ZM328,372.58c-1,3.49-1.85,7.08-2.51,10.77a58.78,58.78,0,0,0,8.36,2.36c.66.21,5.07,1.44,9,2.92a73,73,0,0,1,2-8.25C342.67,378.58,335.54,373.2,328,372.58Zm6.82-17.9a89.82,89.82,0,0,0-5.23,12.93c3.9.51,8.46,2.15,13.69,5.43l6.11-12.77A63.65,63.65,0,0,0,334.82,354.68Z" transform="translate(-282.65 -309.8)"/><rect class="cls-2" x="210.3" y="92.44" width="87.77" height="8.34" rx="0.59"/><path class="cls-1" d="M517.9,343.33c-9.06,0-16.39,11.9-16.39,26.57s7.33,26.57,16.39,26.57,16.38-11.9,16.38-26.57S526.94,343.33,517.9,343.33Zm0,46.63c-6.84,0-12.38-9-12.38-20.06s5.54-20.06,12.38-20.06,12.37,9,12.37,20.06S524.72,390,517.9,390Z" transform="translate(-282.65 -309.8)"/><path class="cls-1" d="M557.13,343.33c-9.06,0-16.39,11.9-16.39,26.57s7.33,26.57,16.39,26.57,16.38-11.9,16.38-26.57S566.17,343.33,557.13,343.33Zm0,46.63c-6.84,0-12.38-9-12.38-20.06s5.54-20.06,12.38-20.06,12.37,9,12.37,20.06S564,390,557.13,390Z" transform="translate(-282.65 -309.8)"/><text class="cls-3" transform="translate(0 136.82)">$</text><path class="cls-4" d="M331.08,450.9c-.87.1-1.75.2-2.67.25" transform="translate(-282.65 -309.8)"/><path class="cls-4" d="M349.29,441.82a8.35,8.35,0,0,1-1.13,1.44" transform="translate(-282.65 -309.8)"/></svg>